<svg width="200" height="200" viewBox="0 0 200 200" fill="none" xmlns="http://www.w3.org/2000/svg">
<path d="M98.5037 97.5245L100.001 98.3865L101.498 97.5245L175.223 55.0714L179.737 52.4722L175.224 49.8721L101.498 7.40049L100.001 6.53781L98.5032 7.40048L24.7765 49.8721L20.263 52.4722L24.777 55.0714L98.5037 97.5245ZM97.7264 104.04V102.306L96.2234 101.44L22.497 58.9875L18 56.3981V61.5873V146.528V148.262L19.5025 149.128L93.2289 191.6L97.7264 194.19V189V104.04ZM103.778 101.44L102.275 102.306V104.04V189V194.19L106.773 191.6L180.498 149.128L182 148.262V146.528V61.5873V56.398L177.503 58.9875L103.778 101.44Z" fill="white" stroke="black" stroke-width="6"/>
</svg>
